<svg xmlns="http://www.w3.org/2000/svg" xmlns:xlink="http://www.w3.org/1999/xlink" width="200" zoomAndPan="magnify" viewBox="0 0 150 74.999997" height="100" preserveAspectRatio="xMidYMid meet" version="1.0"><defs><g/><clipPath id="912cf2d9a9"><path d="M 10.765625 32.609375 L 42.246094 32.609375 L 42.246094 64.089844 L 10.765625 64.089844 Z M 10.765625 32.609375 " clip-rule="nonzero"/></clipPath><clipPath id="c32592fb72"><path d="M 43.917969 29.871094 L 67.902344 29.871094 L 67.902344 66.785156 L 43.917969 66.785156 Z M 43.917969 29.871094 " clip-rule="nonzero"/></clipPath><clipPath id="400a60ec81"><path d="M 43.917969 48.34375 L 67.902344 29.902344 L 67.902344 66.785156 Z M 43.917969 48.34375 " clip-rule="nonzero"/></clipPath><clipPath id="b0274e569e"><path d="M 30.457031 4.457031 L 55.90625 4.457031 L 55.90625 29.90625 L 30.457031 29.90625 Z M 30.457031 4.457031 " clip-rule="nonzero"/></clipPath><clipPath id="345414b7d0"><path d="M 43.183594 4.457031 C 36.152344 4.457031 30.457031 10.152344 30.457031 17.183594 C 30.457031 24.210938 36.152344 29.90625 43.183594 29.90625 C 50.210938 29.90625 55.90625 24.210938 55.90625 17.183594 C 55.90625 10.152344 50.210938 4.457031 43.183594 4.457031 Z M 43.183594 4.457031 " clip-rule="nonzero"/></clipPath><clipPath id="025d12e438"><path d="M 2.953125 9.628906 L 23.230469 9.628906 L 23.230469 29.90625 L 2.953125 29.90625 Z M 2.953125 9.628906 " clip-rule="nonzero"/></clipPath><clipPath id="6a4576f03b"><path d="M 13.09375 9.628906 C 7.492188 9.628906 2.953125 14.167969 2.953125 19.769531 C 2.953125 25.367188 7.492188 29.90625 13.09375 29.90625 C 18.691406 29.90625 23.230469 25.367188 23.230469 19.769531 C 23.230469 14.167969 18.691406 9.628906 13.09375 9.628906 Z M 13.09375 9.628906 " clip-rule="nonzero"/></clipPath></defs><g clip-path="url(#912cf2d9a9)"><path fill="#f1f0f0" d="M 10.765625 32.609375 L 42.246094 32.609375 L 42.246094 64.089844 L 10.765625 64.089844 Z M 10.765625 32.609375 " fill-opacity="1" fill-rule="nonzero"/></g><g clip-path="url(#c32592fb72)"><g clip-path="url(#400a60ec81)"><path fill="#f1f0f0" d="M 43.917969 66.785156 L 43.917969 29.871094 L 67.902344 29.871094 L 67.902344 66.785156 Z M 43.917969 66.785156 " fill-opacity="1" fill-rule="nonzero"/></g></g><g clip-path="url(#b0274e569e)"><g clip-path="url(#345414b7d0)"><path fill="#f1f0f0" d="M 30.457031 4.457031 L 55.90625 4.457031 L 55.90625 29.90625 L 30.457031 29.90625 Z M 30.457031 4.457031 " fill-opacity="1" fill-rule="nonzero"/></g></g><g clip-path="url(#025d12e438)"><g clip-path="url(#6a4576f03b)"><path fill="#f1f0f0" d="M 2.953125 9.628906 L 23.230469 9.628906 L 23.230469 29.90625 L 2.953125 29.90625 Z M 2.953125 9.628906 " fill-opacity="1" fill-rule="nonzero"/></g></g><g fill="#343434" fill-opacity="1"><g transform="translate(12.349743, 55.8838)"><g><path d="M 5.1875 0 L 1.71875 0 L 1.71875 -16.8125 L 5.1875 -16.8125 Z M 5.1875 0 "/></g></g></g><g fill="#343434" fill-opacity="1"><g transform="translate(19.238996, 55.8838)"><g><path d="M 10.21875 -4.40625 C 10.21875 -5.0625 9.984375 -5.5625 9.515625 -5.90625 C 9.054688 -6.257812 8.226562 -6.628906 7.03125 -7.015625 C 5.832031 -7.410156 4.878906 -7.796875 4.171875 -8.171875 C 2.265625 -9.203125 1.3125 -10.59375 1.3125 -12.34375 C 1.3125 -13.25 1.566406 -14.054688 2.078125 -14.765625 C 2.585938 -15.484375 3.320312 -16.039062 4.28125 -16.4375 C 5.238281 -16.832031 6.316406 -17.03125 7.515625 -17.03125 C 8.710938 -17.03125 9.78125 -16.8125 10.71875 -16.375 C 11.65625 -15.945312 12.382812 -15.335938 12.90625 -14.546875 C 13.425781 -13.753906 13.6875 -12.851562 13.6875 -11.84375 L 10.234375 -11.84375 C 10.234375 -12.613281 9.988281 -13.210938 9.5 -13.640625 C 9.007812 -14.066406 8.328125 -14.28125 7.453125 -14.28125 C 6.609375 -14.28125 5.953125 -14.097656 5.484375 -13.734375 C 5.015625 -13.378906 4.78125 -12.910156 4.78125 -12.328125 C 4.78125 -11.785156 5.050781 -11.328125 5.59375 -10.953125 C 6.144531 -10.585938 6.957031 -10.242188 8.03125 -9.921875 C 10 -9.328125 11.429688 -8.585938 12.328125 -7.703125 C 13.234375 -6.828125 13.6875 -5.738281 13.6875 -4.4375 C 13.6875 -2.976562 13.132812 -1.832031 12.03125 -1 C 10.9375 -0.175781 9.457031 0.234375 7.59375 0.234375 C 6.300781 0.234375 5.125 0 4.0625 -0.46875 C 3 -0.945312 2.1875 -1.597656 1.625 -2.421875 C 1.070312 -3.242188 0.796875 -4.195312 0.796875 -5.28125 L 4.265625 -5.28125 C 4.265625 -3.425781 5.375 -2.5 7.59375 -2.5 C 8.414062 -2.5 9.054688 -2.664062 9.515625 -3 C 9.984375 -3.34375 10.21875 -3.8125 10.21875 -4.40625 Z M 10.21875 -4.40625 "/></g></g></g><g fill="#343434" fill-opacity="1"><g transform="translate(33.767582, 55.8838)"><g><path d="M 5.1875 0 L 1.71875 0 L 1.71875 -16.8125 L 5.1875 -16.8125 Z M 5.1875 0 "/></g></g></g><g fill="#f1f0f0" fill-opacity="1"><g transform="translate(70.625051, 53.263547)"><g><path d="M 11 -4.1875 C 10.90625 -2.832031 10.40625 -1.765625 9.5 -0.984375 C 8.601562 -0.210938 7.414062 0.171875 5.9375 0.171875 C 4.320312 0.171875 3.050781 -0.367188 2.125 -1.453125 C 1.207031 -2.546875 0.75 -4.039062 0.75 -5.9375 L 0.75 -6.703125 C 0.75 -7.910156 0.957031 -8.972656 1.375 -9.890625 C 1.800781 -10.816406 2.410156 -11.523438 3.203125 -12.015625 C 4.003906 -12.515625 4.925781 -12.765625 5.96875 -12.765625 C 7.425781 -12.765625 8.597656 -12.375 9.484375 -11.59375 C 10.367188 -10.8125 10.878906 -9.71875 11.015625 -8.3125 L 8.421875 -8.3125 C 8.359375 -9.125 8.132812 -9.710938 7.75 -10.078125 C 7.363281 -10.441406 6.769531 -10.625 5.96875 -10.625 C 5.101562 -10.625 4.457031 -10.316406 4.03125 -9.703125 C 3.601562 -9.085938 3.382812 -8.125 3.375 -6.8125 L 3.375 -5.875 C 3.375 -4.507812 3.578125 -3.507812 3.984375 -2.875 C 4.398438 -2.25 5.050781 -1.9375 5.9375 -1.9375 C 6.738281 -1.9375 7.335938 -2.117188 7.734375 -2.484375 C 8.128906 -2.859375 8.351562 -3.425781 8.40625 -4.1875 Z M 11 -4.1875 "/></g></g></g><g fill="#f1f0f0" fill-opacity="1"><g transform="translate(83.868225, 53.263547)"><g><path d="M 3.875 0 L 1.28125 0 L 1.28125 -12.578125 L 3.875 -12.578125 Z M 3.875 0 "/></g></g></g><g fill="#f1f0f0" fill-opacity="1"><g transform="translate(90.691125, 53.263547)"><g><path d="M 11.359375 0 L 8.765625 0 L 3.71875 -8.28125 L 3.71875 0 L 1.125 0 L 1.125 -12.578125 L 3.71875 -12.578125 L 8.78125 -4.28125 L 8.78125 -12.578125 L 11.359375 -12.578125 Z M 11.359375 0 "/></g></g></g><g fill="#f1f0f0" fill-opacity="1"><g transform="translate(104.850246, 53.263547)"><g><path d="M 8.703125 -5.453125 L 3.71875 -5.453125 L 3.71875 -2.078125 L 9.5625 -2.078125 L 9.5625 0 L 1.125 0 L 1.125 -12.578125 L 9.546875 -12.578125 L 9.546875 -10.484375 L 3.71875 -10.484375 L 3.71875 -7.484375 L 8.703125 -7.484375 Z M 8.703125 -5.453125 "/></g></g></g><g fill="#f1f0f0" fill-opacity="1"><g transform="translate(116.468908, 53.263547)"><g><path d="M 4.515625 -12.578125 L 7.75 -3.453125 L 10.953125 -12.578125 L 14.359375 -12.578125 L 14.359375 0 L 11.765625 0 L 11.765625 -3.4375 L 12.03125 -9.375 L 8.625 0 L 6.84375 0 L 3.453125 -9.375 L 3.71875 -3.4375 L 3.71875 0 L 1.125 0 L 1.125 -12.578125 Z M 4.515625 -12.578125 "/></g></g></g><g fill="#f1f0f0" fill-opacity="1"><g transform="translate(133.635102, 53.263547)"><g><path d="M 8.234375 -2.59375 L 3.6875 -2.59375 L 2.8125 0 L 0.0625 0 L 4.75 -12.578125 L 7.15625 -12.578125 L 11.859375 0 L 9.109375 0 Z M 4.375 -4.6875 L 7.53125 -4.6875 L 5.953125 -9.40625 Z M 4.375 -4.6875 "/></g></g></g></svg>